# xmcd
#
# Track frame offsets: 
#        150
#        15900
#        37982
#        48182
#        63960
#        76763
#        88522
#        106560
#        125403
#        137169
#
# Disc length: 2078 seconds
#
# Revision: 0
# Processed by: cddbd v1.5.1PL2 Copyright (c) Steve Scherf et al.
# Submitted via: ExactAudioCopy v0.95b4
#
DISCID=67081c0a
DTITLE=เอกชัย ศรีวิชัย - พี่นักร้อง น้องโนราห์
DYEAR=2006
DGENRE=Country
TTITLE0=รักพังน้ำมันแพง
TTITLE1=เดือนตามดาว
TTITLE2=รายอรอรัก
TTITLE3=แม่บัวบังไบ
TTITLE4=มองพี่ทำไหร
TTITLE5=จีบสาวด้วยเพลง
TTITLE6=เมาเพราะเมีย
TTITLE7=อย่าลองยา
TTITLE8=โทรมาทำไม
TTITLE9=บอกม๊ะไปขอแม๊ะ
EXTD=
EXTT0=
EXTT1=
EXTT2=
EXTT3=
EXTT4=
EXTT5=
EXTT6=
EXTT7=
EXTT8=
EXTT9=
PLAYORDER=
